<?xml version="1.0" encoding="utf-8"?>
<!-- Generator: Adobe Illustrator 26.5.0, SVG Export Plug-In . SVG Version: 6.00 Build 0)  -->
<svg version="1.1" id="Layer_1" xmlns="http://www.w3.org/2000/svg" xmlns:xlink="http://www.w3.org/1999/xlink" x="0px" y="0px"
	 viewBox="0 0 22.6 22.6" style="enable-background:new 0 0 22.6 22.6;" xml:space="preserve">
<style type="text/css">
	.st0{fill:url(#Rectangle_165_00000175318637364598124800000008620466086119542162_);}
	.st1{fill:#FFFFFF;}
	.st2{fill:#FFC400;}
</style>
<g id="identities-color" transform="translate(-0.999 -1.005)">
	
		<linearGradient id="Rectangle_165_00000116217413040244864160000018180272651064652434_" gradientUnits="userSpaceOnUse" x1="-947.3464" y1="539.4289" x2="-947.3234" y2="538.5479" gradientTransform="matrix(14 0 0 -22 13271.165 11868.9434)">
		<stop  offset="0" style="stop-color:#F4044D;stop-opacity:0.502"/>
		<stop  offset="1" style="stop-color:#F4044D;stop-opacity:0"/>
	</linearGradient>
	<path id="Rectangle_165" style="fill:url(#Rectangle_165_00000116217413040244864160000018180272651064652434_);" d="M8.5,1.5
		L8.5,1.5c3.9,0,7,3.1,7,7v8c0,3.9-3.1,7-7,7l0,0c-3.9,0-7-3.1-7-7v-8C1.5,4.6,4.6,1.5,8.5,1.5z"/>
	<g id="Path_16784">
		<path class="st1" d="M1.5,9.2C1.5,9.2,1.5,9.2,1.5,9.2C1.2,9.2,1,9,1,8.7C1,7.4,1.4,6,2,4.9c2.1-3.7,6.9-5,10.5-2.9
			c0.2,0.1,0.3,0.4,0.2,0.7S12.3,3,12.1,2.9C10.5,2,8.7,1.8,7,2.2C5.2,2.7,3.8,3.8,2.9,5.4C2.3,6.4,2,7.6,2,8.7C2,9,1.8,9.2,1.5,9.2
			z"/>
	</g>
	<g id="Path_16785">
		<path class="st1" d="M15.9,9.2L15.9,9.2c-0.3,0-0.5-0.2-0.5-0.5c0-0.9-0.2-1.8-0.6-2.7c-0.1-0.3,0-0.5,0.3-0.7
			c0.3-0.1,0.5,0,0.7,0.3c0.4,1,0.6,2,0.6,3.1C16.4,9,16.2,9.2,15.9,9.2z"/>
	</g>
	<g id="Path_16786">
		<path class="st1" d="M8.7,23.7c-0.3,0-0.5-0.2-0.5-0.5c0-0.3,0.2-0.5,0.5-0.5c0,0,0,0,0,0c0.4,0,0.9,0,1.3-0.1
			c0.3-0.1,0.5,0.1,0.6,0.4c0.1,0.3-0.1,0.5-0.4,0.6C9.8,23.6,9.2,23.7,8.7,23.7z"/>
	</g>
	<g id="Path_16787">
		<path class="st1" d="M5.8,23.1c-0.1,0-0.1,0-0.2,0C2.8,21.8,1,19,1,15.9V13c0-0.3,0.2-0.5,0.5-0.5S2,12.8,2,13v2.9
			c0,2.7,1.6,5.1,4,6.2c0.3,0.1,0.4,0.4,0.3,0.7C6.2,22.9,6,23.1,5.8,23.1z"/>
	</g>
	<g id="Path_16788">
		<path class="st1" d="M13,12.6c-0.3,0-0.5-0.2-0.5-0.5V8.7c0-1-0.4-2-1.1-2.7c-0.7-0.7-1.7-1.1-2.7-1.1c0,0,0,0,0,0
			C8,4.9,7.4,5.1,6.8,5.4C6.6,5.5,6.3,5.5,6.1,5.2C6,5,6.1,4.7,6.3,4.5C7,4.1,7.9,3.9,8.7,3.9c0,0,0,0,0,0c1.3,0,2.5,0.5,3.4,1.4
			s1.4,2.1,1.4,3.4v3.4C13.5,12.4,13.3,12.6,13,12.6z"/>
	</g>
	<g id="Path_16789">
		<path class="st1" d="M8.8,20.8C8.7,20.8,8.7,20.8,8.8,20.8c-1.3,0-2.6-0.5-3.5-1.4c-0.9-0.9-1.4-2.1-1.4-3.4V8.7
			c0-0.3,0.2-0.5,0.5-0.5s0.5,0.2,0.5,0.5v7.2c0,1,0.4,2,1.1,2.7c0.7,0.7,1.7,1.1,2.7,1.1c0.4,0,0.9-0.1,1.3-0.2
			c0.3-0.1,0.5,0,0.6,0.3c0.1,0.3,0,0.5-0.3,0.6C9.8,20.7,9.3,20.8,8.8,20.8z"/>
	</g>
	<g id="Path_16790">
		<path class="st1" d="M8.7,17.9c-1.1,0-1.9-0.9-1.9-1.9c0-0.3,0.2-0.5,0.5-0.5s0.5,0.2,0.5,0.5c0,0.5,0.4,0.9,0.9,0.9
			c0.5,0,0.9-0.4,0.9-0.9V8.7c0-0.5-0.4-0.9-0.9-0.9c-0.5,0-0.9,0.4-0.9,0.9v2.9c0,0.3-0.2,0.5-0.5,0.5s-0.5-0.2-0.5-0.5V8.7
			c0-1.1,0.9-1.9,1.9-1.9s1.9,0.9,1.9,1.9v7.2C10.7,17,9.8,17.9,8.7,17.9z"/>
	</g>
	<g id="Group_222" transform="translate(14.49 11.606)">
		<g id="Path_16791">
			<path class="st2" d="M7.2,4.3H1.4C0.6,4.3,0,5,0,5.8l0,0v4.3c0,0.8,0.6,1.4,1.4,1.4h0h5.8c0.8,0,1.4-0.6,1.4-1.4l0,0V5.8
				C8.7,5,8,4.3,7.2,4.3L7.2,4.3z"/>
			<path class="st1" d="M7.2,12H1.4c-1.1,0-1.9-0.9-1.9-1.9V5.8c0-1.1,0.9-1.9,1.9-1.9h5.8c1.1,0,1.9,0.9,1.9,1.9v4.3
				C9.2,11.2,8.3,12,7.2,12z M1.4,4.8c-0.5,0-0.9,0.4-0.9,0.9v4.3c0,0.5,0.4,0.9,0.9,0.9h5.8c0.5,0,0.9-0.4,0.9-0.9V5.8
				c0-0.5-0.4-0.9-0.9-0.9H1.4z"/>
		</g>
		<g id="Path_16792">
			<path class="st1" d="M7.2,4.8H1.4c-0.3,0-0.5-0.2-0.5-0.5V2.9c0-1.9,1.5-3.4,3.4-3.4l0,0c1.9,0,3.4,1.5,3.4,3.4v1.4
				C7.7,4.6,7.5,4.8,7.2,4.8z M1.9,3.8h4.8V2.9c0-1.3-1.1-2.4-2.4-2.4C3,0.5,1.9,1.6,1.9,2.9V3.8z"/>
		</g>
		<g id="Path_16793">
			<path class="st1" d="M4.3,8.8C3.9,8.8,3.5,8.4,3.5,8s0.4-0.9,0.9-0.9V8.8z"/>
		</g>
		<g id="Path_16794">
			<path class="st1" d="M4.3,8.8V7.1c0.5,0,0.9,0.4,0.9,0.9S4.8,8.8,4.3,8.8z"/>
		</g>
	</g>
</g>
</svg>
