<svg xmlns="http://www.w3.org/2000/svg" xmlns:xlink="http://www.w3.org/1999/xlink" width="25.105" height="25.115" viewBox="0 0 25.105 25.115">
  <defs>
    <linearGradient id="linear-gradient" x1="0.5" x2="0.5" y2="1" gradientUnits="objectBoundingBox">
      <stop offset="0" stop-color="#fff" stop-opacity="0.302"/>
      <stop offset="1" stop-color="#fff" stop-opacity="0.902"/>
    </linearGradient>
    <linearGradient id="linear-gradient-2" x1="0.5" x2="0.5" y2="1" gradientUnits="objectBoundingBox">
      <stop offset="0" stop-color="#fff" stop-opacity="0.902"/>
      <stop offset="1" stop-color="#fff" stop-opacity="0.4"/>
    </linearGradient>
    <linearGradient id="linear-gradient-3" x1="0.5" x2="0.5" y2="1" gradientUnits="objectBoundingBox">
      <stop offset="0" stop-color="#fff" stop-opacity="0.902"/>
      <stop offset="1" stop-color="#fff" stop-opacity="0.302"/>
    </linearGradient>
  </defs>
  <g id="software" transform="translate(-0.1 0)">
    <path id="Subtraction_1" data-name="Subtraction 1" d="M5792.361-6245h-14.837a7.961,7.961,0,0,1-.582-3,8.008,8.008,0,0,1,8-8,8.009,8.009,0,0,1,8,8,7.962,7.962,0,0,1-.581,3Z" transform="translate(-5772 6256)" opacity="0.7" fill="url(#linear-gradient)"/>
    <path id="Subtraction_3" data-name="Subtraction 3" d="M6040.6-5837.781h-24v-1.515l1.553-2.485h20.285l2.163,2.768v1.231Z" transform="translate(-6015.657 5852.78)" opacity="0.79" fill="url(#linear-gradient-2)"/>
    <rect id="Rectangle_185" data-name="Rectangle 185" width="19" height="10" rx="1" transform="translate(2.942 15)" fill="url(#linear-gradient-3)"/>
    <g id="Page-1_32_" transform="translate(0.1 0)">
      <g id="_x30_33---Coding-Software" transform="translate(0 0)">
        <path id="Shape_531_" d="M2.085,12,.328,14.513A1.255,1.255,0,0,0,1.354,16.49H2.609v7.951a1.674,1.674,0,0,0,1.674,1.674H21.022A1.674,1.674,0,0,0,22.7,24.441V16.49h1.255a1.255,1.255,0,0,0,1.025-1.977L23.219,12a1.251,1.251,0,0,0-1.025-.534H20.755a8.37,8.37,0,1,0-16.2,0H3.111A1.251,1.251,0,0,0,2.085,12ZM21.859,24.441a.837.837,0,0,1-.837.837H4.283a.837.837,0,0,1-.837-.837V16.49H21.859Zm.675-11.959,1.758,2.511a.418.418,0,0,1-.341.66H1.354a.419.419,0,0,1-.339-.66l1.758-2.511a.415.415,0,0,1,.339-.177H22.194a.414.414,0,0,1,.341.177ZM10.56,9.376a2.092,2.092,0,1,1,2.092,2.092A2.092,2.092,0,0,1,10.56,9.376Zm4.831,1.029,1.919,1.063H14.7A2.939,2.939,0,0,0,15.392,10.405Zm4.794-1.029a7.542,7.542,0,0,1-.3,2.092h-.847L15.573,9.549c0-.058.009-.115.009-.173A2.922,2.922,0,0,0,11.614,6.64L9.371,2.606a7.515,7.515,0,0,1,10.814,6.77ZM8.64,3.012l2.243,4.035a2.941,2.941,0,0,0-.811.945L5.73,6.411A7.57,7.57,0,0,1,8.64,3.012ZM5.12,9.376A7.507,7.507,0,0,1,5.444,7.2L9.785,8.781a2.922,2.922,0,0,0,.821,2.687H5.421a7.544,7.544,0,0,1-.3-2.092Z" transform="translate(-0.1 -1)" fill="#fff"/>
        <path id="Shape_530_" d="M231.728,146.2a1.255,1.255,0,1,0,1.255,1.255A1.255,1.255,0,0,0,231.728,146.2Zm0,1.674a.418.418,0,1,1,.418-.418A.418.418,0,0,1,231.728,147.87Z" transform="translate(-219.175 -139.075)" fill="#fff"/>
      </g>
    </g>
  </g>
</svg>
